<svg xmlns="http://www.w3.org/2000/svg" width="134" height="49" viewBox="0 0 134 49">
  <metadata><?xpacket begin="﻿" id="W5M0MpCehiHzreSzNTczkc9d"?>
<x:xmpmeta xmlns:x="adobe:ns:meta/" x:xmptk="Adobe XMP Core 5.6-c138 79.159824, 2016/09/14-01:09:01        ">
   <rdf:RDF xmlns:rdf="http://www.w3.org/1999/02/22-rdf-syntax-ns#">
      <rdf:Description rdf:about=""/>
   </rdf:RDF>
</x:xmpmeta>
                                                                                                    
                                                                                                    
                                                                                                    
                                                                                                    
                                                                                                    
                                                                                                    
                                                                                                    
                                                                                                    
                                                                                                    
                                                                                                    
                                                                                                    
                                                                                                    
                                                                                                    
                                                                                                    
                                                                                                    
                                                                                                    
                                                                                                    
                                                                                                    
                                                                                                    
                                                                                                    
                           
<?xpacket end="w"?></metadata>
<defs>
    <style>
      .cls-1 {
        fill: #bdd500;
        fill-rule: evenodd;
      }
    </style>
  </defs>
  <path id="Logo" class="cls-1" d="M179.871,31a4.156,4.156,0,0,1,2.692.679v0.226l0.9,0.227,0.225,0.453,0.9,0.226q0.113,0.227.224,0.453l0.9,0.227q0.111,0.226.224,0.453h0.449q0.111,0.226.224,0.453l0.9,0.226,0.225,0.453,0.9,0.227q0.112,0.226.224,0.453h0.449q0.112,0.226.224,0.453h0.449q0.112,0.226.224,0.453h0.449q0.112,0.226.224,0.453h0.449V37.34l0.673,0.227q0.112,0.227.224,0.453h0.449v0.226l0.673,0.227q0.113,0.227.224,0.453H194l0.449,0.679H194.9q0.111,0.226.224,0.453h0.449l0.448,0.679h0.449l0.673,0.906h0.449l0.9,1.132c1.563,1.575,2.4,2,3.141,4.528a6.021,6.021,0,0,1-.225,2.717v0.906h-0.224q-0.112.453-.224,0.906h-0.225q-0.111.453-.224,0.906l-0.449.227v0.453l-0.448.226-0.225.906-0.448.227v0.453l-0.449.227v0.453h-0.224l-0.225.679h0.225v0.227l0.9,0.226q0.113,0.227.224,0.453h0.449q0.224,0.34.449,0.679h0.448l0.449,0.679h0.449q0.111,0.226.224,0.453l0.9,0.227,0.225,0.453,0.9,0.226v0.227h0.449q0.111,0.226.224,0.453H205v0.226h0.448v0.227h0.449v0.226h0.449v0.226l0.9,0.226q0.112,0.227.224,0.453l2.02,0.679v0.227h0.448v0.226h0.449v0.227h0.449v0.226l1.346,0.453v0.226h0.673v0.226l0.9,0.227v0.226h0.673v0.227h0.449v0.226h0.673V66.1h0.448v0.226h0.673v0.227h0.449v0.226h0.673V67h0.449v0.226l1.346,0.227v0.226h0.448v0.227l2.019,0.453v0.226h0.673v0.227h0.673v0.226h0.673v0.227h0.673v0.226h0.674v0.227h0.673v0.226h0.9v0.227h0.673V70.4h0.673v0.226l1.57,0.226v0.227l2.468,0.453v0.227l2.916,0.453c2.177,0.71,4.926,1.118,7.179,1.811h1.346c2.547,0.78,5.907.816,8.525,1.585l3.59,0.227v0.226h2.019v0.227h2.243v0.226h2.692v0.227l8.525,0.226h6.506V76.738h2.916l8.749-1.585V74.927h0.673V74.7h0.673V74.474h0.673V74.247l1.346-.226V73.794h0.449V73.568h0.673V73.342l1.346-.453V72.662h0.449V72.436H296.3V72.21h0.673V71.983h0.449V71.757h0.449V71.53h0.448V71.3h0.673V71.077h0.449V70.851a6.884,6.884,0,0,1,3.814-.226c0.273,0.576.96,1.631,0.673,2.038-0.345,1.18-.872.867-1.8,1.358v0.226h-0.449v0.226h-0.673V74.7h-0.448v0.227h-0.673v0.226h-0.673v0.227l-1.571.226v0.227h-0.673v0.226H296.3v0.227l-1.57.226v0.227l-2.468.453v0.226h-0.9v0.227l-2.019.226V78.1l-2.244.226v0.227h-1.346v0.226h-1.346V79h-1.57v0.227l-6.954.453c-1.942.541-5.069,0.226-7.4,0.226-2.129,0-4.987.272-6.73-.226h-3.14V79.455H256.37V79.229h-2.019V79h-1.795V78.776h-1.57c-2.394-.712-5.33-0.859-7.627-1.585h-1.122V76.964l-2.019-.226V76.511h-0.9c-1.057-.364-2.532-0.769-3.589-1.132l-1.795-.227c-5.091-1.848-10.8-3.011-15.7-4.981l-1.346-.227V69.719h-0.673V69.492h-0.673V69.266h-0.673V69.039H214.2V68.813h-0.673V68.587h-0.673V68.36H212.4V68.134l-1.346-.226V67.681h-0.449V67.455h-0.673V67.228h-0.673V67H208.81V66.775h-0.673V66.549h-0.448V66.322h-0.673V66.1l-1.122-.227V65.643l-0.9-.227V65.19h-0.449V64.964h-0.673V64.737l-1.346-.453V64.058H202.08V63.832h-0.448V63.605h-0.449V63.379h-0.449V63.152h-0.448V62.926h-0.449V62.7h-0.449V62.473H198.94l-0.225-.453-0.9-.226q-0.113-.226-0.224-0.453h-0.449q-0.113-.227-0.224-0.453h-0.449l-0.225-.453H195.8V60.209l-0.673-.226a7.41,7.41,0,0,1-3.141,2.717h-1.122a5.415,5.415,0,0,1-2.467.226V62.7H187.05V62.473l-2.244-.453V61.794h-0.448V61.567l-0.9-.226-0.224-.453h-0.449l-0.448-.679H181.89l-1.346-1.585-0.673-.453V57.718l-1.346-1.132V56.133l-0.9-.679V55l-0.9-.679V53.869l-0.673-.453V52.963l-0.673-.453V52.058l-0.673-.453V51.152l-0.673-.453V50.246l-0.449-.227q-0.111-.339-0.224-0.679h-0.224V48.888l-0.673-.453V47.982l-0.449-.227V47.3l-0.449-.226V46.623c-0.725-1.107-1.53-1.736-1.57-3.623a1.859,1.859,0,0,1,1.346-.453v0.227h0.673q0.112,0.226.224,0.453h0.449l0.449,0.679h0.448l0.449,0.679,1.795,1.585a49.613,49.613,0,0,0,5.384,5.887l2.019,2.264h0.449l0.673,0.906h0.448v0.227l0.673,0.226,0.225,0.453h0.673a2.11,2.11,0,0,0,2.916-1.358h0.224l0.225-1.585a1.91,1.91,0,0,1-.449-0.906h-0.224V51.831l-0.673-.453V50.925l-0.449-.226-0.9-1.132H186.6l-1.122-1.359h-0.448l-0.673-.906h-0.449l-0.673-.906h-0.449l-0.673-.906h-0.448l-0.673-.906h-0.449l-1.57-1.811h-0.225V40.963h0.225q0.111-.566.224-1.132a3.013,3.013,0,0,0,1.121-.679c2.807,0.556,3.948,2.4,5.609,4.076l2.243,2.038v0.453l1.571,1.359v0.453l1.346,1.132v0.453h0.224l0.449,0.679h0.448c1.925,1.091,3.7-.043,3.814-2.264H195.8q-0.113-.566-0.224-1.132l-0.9-.679V45.265h-0.224l-0.225-.453H193.78l-1.122-1.359h-0.449l-0.448-.679h-0.449q-0.224-.34-0.449-0.679h-0.448l-0.225-.453h-0.448l-0.225-.453h-0.448l-0.225-.453H188.4l-0.225-.453h-0.448l-0.225-.453-0.9-.226q-0.112-.227-0.224-0.453h-0.449V38.925h-0.449V38.7h-0.448V38.472h-0.449V38.245h-0.449l-0.224-.453-0.9-.226-0.225-.453h-0.448l-1.346-1.585c-1.086-1.1-2.206-1.644-2.244-3.849a2.03,2.03,0,0,0,.449-0.453h0.673V31Z" transform="translate(-170 -31)"/>
</svg>
