<svg xmlns="http://www.w3.org/2000/svg" width="65" height="50" viewBox="0 0 65 50">
  <metadata><?xpacket begin="﻿" id="W5M0MpCehiHzreSzNTczkc9d"?>
<x:xmpmeta xmlns:x="adobe:ns:meta/" x:xmptk="Adobe XMP Core 5.6-c138 79.159824, 2016/09/14-01:09:01        ">
   <rdf:RDF xmlns:rdf="http://www.w3.org/1999/02/22-rdf-syntax-ns#">
      <rdf:Description rdf:about=""/>
   </rdf:RDF>
</x:xmpmeta>
                                                                                                    
                                                                                                    
                                                                                                    
                                                                                                    
                                                                                                    
                                                                                                    
                                                                                                    
                                                                                                    
                                                                                                    
                                                                                                    
                                                                                                    
                                                                                                    
                                                                                                    
                                                                                                    
                                                                                                    
                                                                                                    
                                                                                                    
                                                                                                    
                                                                                                    
                                                                                                    
                           
<?xpacket end="w"?></metadata>
<defs>
    <style>
      .cls-1 {
        fill: #83a700;
        fill-rule: evenodd;
      }
    </style>
  </defs>
  <path id="Icon" class="cls-1" d="M653.84,1161.29h61.32a1.855,1.855,0,0,1,0,3.71H653.84A1.855,1.855,0,0,1,653.84,1161.29Zm2.248-1.47s-0.715-18.76,24.12-22.68c0.613-3.2,2.35-3.92,4.088-4.12s3.883,0.61,4.088,4.53c4.088,0.41,24.937,3.71,24.937,22.27H656.088Zm4.088-3.72s3.271-16.9,23.711-16.07v2.88s-17.783,0-20.44,13.61A13.578,13.578,0,0,0,660.176,1156.1Zm20.856-37.16s-5.655,3.13-1.553,7.31,0,6.75,0,6.75,4.657-2.91,2.329-6.19S680.126,1121.47,681.032,1118.94Zm7.007,1.06s-3.8,2.45-1.042,5.72,0,5.28,0,5.28,3.126-2.27,1.563-4.84S687.431,1121.98,688.039,1120Zm-2.351-5s-6.43,7.07-2.328,11.25,0,6.75,0,6.75,4.657-2.91,2.328-6.19S684.783,1117.53,685.688,1115Z" transform="translate(-652 -1115)"/>
</svg>
